<?xml version="1.0" encoding="UTF-8" standalone="no"?>
<!DOCTYPE svg PUBLIC "-//W3C//DTD SVG 1.1//EN" "http://www.w3.org/Graphics/SVG/1.1/DTD/svg11.dtd">
<svg version="1.1" xmlns="http://www.w3.org/2000/svg" xmlns:xlink="http://www.w3.org/1999/xlink" preserveAspectRatio="xMidYMid meet" viewBox="0 0 64 64" width="64" height="64"><defs><path d="M62.98 8.09C63.64 7.43 64 6.55 64 5.61C64 4.68 63.64 3.8 62.98 3.14C62.77 2.93 61.09 1.25 60.88 1.04C60.22 0.38 59.34 0.02 58.41 0.02C57.47 0.02 56.59 0.38 55.93 1.04C54.34 2.64 46.36 10.61 32.01 24.96C17.66 10.61 9.69 2.64 8.09 1.04C7.43 0.38 6.55 0.02 5.62 0.02C4.68 0.02 3.8 0.38 3.14 1.04C2.93 1.25 1.26 2.93 1.05 3.14C-0.32 4.5 -0.32 6.72 1.05 8.09C2.64 9.68 10.62 17.66 24.97 32.01C10.62 46.36 2.64 54.34 1.05 55.93C0.39 56.59 0.03 57.47 0.03 58.41C0.03 59.34 0.39 60.22 1.05 60.88C1.26 61.09 2.93 62.77 3.14 62.98C3.8 63.64 4.68 64 5.62 64C6.55 64 7.43 63.64 8.09 62.98C9.69 61.38 17.66 53.41 32.01 39.06C46.36 53.41 54.34 61.38 55.93 62.98C56.59 63.64 57.47 64 58.41 64C58.41 64 58.41 64 58.41 64C59.34 64 60.22 63.64 60.88 62.98C61.09 62.77 62.77 61.09 62.98 60.88C63.64 60.22 64 59.34 64 58.41C64 57.47 63.64 56.59 62.98 55.93C61.38 54.34 53.41 46.36 39.06 32.01C53.41 17.66 61.38 9.68 62.98 8.09Z" id="a5ybeORTFp"></path></defs><g><g><g><use xlink:href="#a5ybeORTFp" opacity="1" fill="#e4e4e4" fill-opacity="1"></use><g><use xlink:href="#a5ybeORTFp" opacity="1" fill-opacity="0" stroke="#000000" stroke-width="1" stroke-opacity="0"></use></g></g></g></g></svg>