<?xml version="1.0" encoding="UTF-8" standalone="no"?>
<!DOCTYPE svg PUBLIC "-//W3C//DTD SVG 1.1//EN" "http://www.w3.org/Graphics/SVG/1.1/DTD/svg11.dtd">
<svg version="1.1" xmlns="http://www.w3.org/2000/svg" xmlns:xlink="http://www.w3.org/1999/xlink" preserveAspectRatio="xMidYMid meet" viewBox="0 0 90 64" width="90" height="64"><defs><path d="M9.49 0C4.26 0 0 4.61 0 10.29C0 14.63 0 49.37 0 53.71C0 59.39 4.26 64 9.49 64C16.59 64 73.41 64 80.51 64C85.74 64 90 59.39 90 53.71C90 49.37 90 14.63 90 10.29C90 4.61 85.74 0 80.51 0C66.3 0 16.59 0 9.49 0ZM60.47 15.24C62.8 15.24 64.69 17.28 64.69 19.81C64.69 22.33 62.8 24.38 60.47 24.38C60.19 24.38 57.94 24.38 57.66 24.38C55.33 24.38 53.44 22.33 53.44 19.81C53.44 17.28 55.33 15.24 57.66 15.24C58.22 15.24 60.19 15.24 60.47 15.24ZM53.44 36.57C53.16 36.57 50.91 36.57 50.63 36.57C48.3 36.57 46.41 34.52 46.41 32C46.41 29.48 48.3 27.43 50.63 27.43C50.91 27.43 53.16 27.43 53.44 27.43C55.77 27.43 57.66 29.48 57.66 32C57.66 34.52 55.77 36.57 53.44 36.57ZM46.41 15.24C48.74 15.24 50.63 17.28 50.63 19.81C50.63 22.33 48.74 24.38 46.41 24.38C46.12 24.38 43.88 24.38 43.59 24.38C41.26 24.38 39.38 22.33 39.38 19.81C39.38 17.28 41.26 15.24 43.59 15.24C44.16 15.24 46.12 15.24 46.41 15.24ZM39.38 36.57C39.09 36.57 36.84 36.57 36.56 36.57C34.23 36.57 32.34 34.52 32.34 32C32.34 29.48 34.23 27.43 36.56 27.43C36.84 27.43 39.09 27.43 39.38 27.43C41.7 27.43 43.59 29.48 43.59 32C43.59 34.52 41.7 36.57 39.38 36.57ZM32.34 15.24C34.67 15.24 36.56 17.28 36.56 19.81C36.56 22.33 34.67 24.38 32.34 24.38C32.06 24.38 29.81 24.38 29.53 24.38C27.2 24.38 25.31 22.33 25.31 19.81C25.31 17.28 27.2 15.24 29.53 15.24C30.09 15.24 32.06 15.24 32.34 15.24ZM18.28 15.24C20.61 15.24 22.5 17.28 22.5 19.81C22.5 22.33 20.61 24.38 18.28 24.38C18 24.38 15.75 24.38 15.47 24.38C13.14 24.38 11.25 22.33 11.25 19.81C11.25 17.28 13.14 15.24 15.47 15.24C16.03 15.24 18 15.24 18.28 15.24ZM15.47 48.76C13.14 48.76 11.25 46.72 11.25 44.19C11.25 41.67 13.14 39.62 15.47 39.62C16.03 39.62 20.53 39.62 21.09 39.62C23.42 39.62 25.31 41.67 25.31 44.19C25.31 46.72 23.42 48.76 21.09 48.76C19.97 48.76 16.03 48.76 15.47 48.76ZM21.09 36.57C18.76 36.57 16.88 34.52 16.88 32C16.88 29.48 18.76 27.43 21.09 27.43C21.38 27.43 23.63 27.43 23.91 27.43C26.24 27.43 28.13 29.48 28.13 32C28.13 34.52 26.24 36.57 23.91 36.57C23.34 36.57 21.38 36.57 21.09 36.57ZM32.34 48.76C30.01 48.76 28.13 46.72 28.13 44.19C28.13 41.67 30.01 39.62 32.34 39.62C34.88 39.62 55.13 39.62 57.66 39.62C59.99 39.62 61.88 41.67 61.88 44.19C61.88 46.72 59.99 48.76 57.66 48.76C52.59 48.76 34.88 48.76 32.34 48.76ZM66.09 27.43C66.38 27.43 68.63 27.43 68.91 27.43C71.24 27.43 73.13 29.48 73.13 32C73.13 34.52 71.24 36.57 68.91 36.57C68.63 36.57 66.38 36.57 66.09 36.57C63.76 36.57 61.88 34.52 61.88 32C61.88 29.48 63.76 27.43 66.09 27.43ZM68.91 48.76C66.58 48.76 64.69 46.72 64.69 44.19C64.69 41.67 66.58 39.62 68.91 39.62C69.47 39.62 73.97 39.62 74.53 39.62C76.86 39.62 78.75 41.67 78.75 44.19C78.75 46.72 76.86 48.76 74.53 48.76C73.41 48.76 69.47 48.76 68.91 48.76ZM71.72 24.38C69.39 24.38 67.5 22.33 67.5 19.81C67.5 17.28 69.39 15.24 71.72 15.24C72 15.24 74.25 15.24 74.53 15.24C76.86 15.24 78.75 17.28 78.75 19.81C78.75 22.33 76.86 24.38 74.53 24.38C73.97 24.38 72 24.38 71.72 24.38Z" id="a1bLQVCYek"></path></defs><g><g><g><use xlink:href="#a1bLQVCYek" opacity="1" fill="#e4e4e4" fill-opacity="1"></use><g><use xlink:href="#a1bLQVCYek" opacity="1" fill-opacity="0" stroke="#000000" stroke-width="1" stroke-opacity="0"></use></g></g></g></g></svg>