<svg id="Capa_1" enable-background="new 0 0 512 512" height="512" viewBox="0 0 512 512" width="512" xmlns="http://www.w3.org/2000/svg"><g><path d="m90 361v-90l-45-210h422c24.814 0 45 20.186 45 45v300c0 24.814-20.186 45-45 45h-422z" fill="#ffeded"/><path d="m467 61h-196v390h196c24.814 0 45-20.186 45-45v-300c0-24.814-20.186-45-45-45z" fill="#fed5d5"/><g><g><g id="News_Headline_1_"><g><g><path d="m256 391h-105c-8.291 0-15-6.709-15-15v-120c0-8.291 6.709-15 15-15h105c8.291 0 15 6.709 15 15v120c0 8.291-6.709 15-15 15z" fill="#ff8080"/></g></g></g><g><g><g><g><path d="m90 271h-75c-8.284 0-15-6.716-15-15v-150c0-24.814 20.186-45 45-45s45 20.186 45 45z" fill="#fed5d5"/></g></g></g></g><g><g><g><g><path d="m45 451c-24.814 0-45-20.186-45-45v-30c0-8.284 6.716-15 15-15h75v45c0 24.814-20.186 45-45 45z" fill="#fed5d5"/></g></g></g></g></g><g><g><path d="m466 211h-315c-8.291 0-15-6.709-15-15v-60c0-8.291 6.709-15 15-15h315c8.291 0 15 6.709 15 15v60c0 8.291-6.709 15-15 15z" fill="#ff8080"/></g></g></g><path d="m466 121h-195v90h195c8.291 0 15-6.709 15-15v-60c0-8.291-6.709-15-15-15z" fill="#ff6666"/><g><g><path d="m466 271h-150c-8.291 0-15-6.709-15-15s6.709-15 15-15h150c8.291 0 15 6.709 15 15s-6.709 15-15 15z" fill="#ff6666"/></g></g><g><g><path d="m466 331h-150c-8.291 0-15-6.709-15-15s6.709-15 15-15h150c8.291 0 15 6.709 15 15s-6.709 15-15 15z" fill="#ff6666"/></g></g><g><g><path d="m466 391h-150c-8.291 0-15-6.709-15-15s6.709-15 15-15h150c8.291 0 15 6.709 15 15s-6.709 15-15 15z" fill="#ff6666"/></g></g></g></svg>