<?xml version="1.0" encoding="UTF-8" standalone="no"?>
<!DOCTYPE svg PUBLIC "-//W3C//DTD SVG 1.1//EN" "http://www.w3.org/Graphics/SVG/1.1/DTD/svg11.dtd">
<svg version="1.1" xmlns="http://www.w3.org/2000/svg" xmlns:xlink="http://www.w3.org/1999/xlink" preserveAspectRatio="xMidYMid meet" viewBox="0 0 64 64" width="64" height="64"><defs><path d="M44.59 37.98C52.42 27.13 49.8 12.11 38.74 4.43C27.67 -3.25 12.35 -0.69 4.52 10.16C-3.32 21.01 -0.7 36.03 10.37 43.71C18.27 49.19 28.71 49.62 37.04 44.79C38.85 46.56 53.33 60.67 55.14 62.43C57.09 64.45 60.34 64.53 62.4 62.61C64.46 60.7 64.54 57.51 62.59 55.5C62.53 55.43 62.47 55.37 62.4 55.31C58.84 51.84 48.15 41.44 44.59 37.98ZM8.7 24.11C8.7 15.53 15.78 8.58 24.52 8.58C33.26 8.58 40.34 15.51 40.36 24.07C40.38 32.65 33.3 39.61 24.55 39.62C24.54 39.62 24.54 39.62 24.54 39.62C15.79 39.62 8.7 32.68 8.7 24.11Z" id="a4iESpwnif"></path></defs><g><g><g><use xlink:href="#a4iESpwnif" opacity="1" fill="#9e9e9e" fill-opacity="1"></use><g><use xlink:href="#a4iESpwnif" opacity="1" fill-opacity="0" stroke="#000000" stroke-width="1" stroke-opacity="0"></use></g></g></g></g></svg>